<svg width="20" height="20" viewBox="0 0 20 20" fill="none" xmlns="http://www.w3.org/2000/svg">
<path d="M8.4161 8.33239C8.4161 7.56707 7.89527 7.56707 7.89527 7.56707H7.61935H5.75276H5.75195V9.2097H7.76235C8.10997 9.2097 8.4161 9.09893 8.4161 8.33239Z" fill="#1D63F8"/>
<path d="M13.3819 9.2097C12.2456 9.2097 12.0869 10.3432 12.0869 10.3432H14.5045C14.5045 10.344 14.5194 9.2097 13.3819 9.2097Z" fill="#1D63F8"/>
<path d="M7.89504 10.344H5.75293V12.3121H7.65054C7.68276 12.3121 7.73029 12.3137 7.78709 12.3121C8.09201 12.3044 8.67164 12.2174 8.67164 11.3558C8.67164 10.3343 7.89504 10.344 7.89504 10.344Z" fill="#1D63F8"/>
<path d="M10 0C4.48602 0 0 4.48602 0 10C0 15.5136 4.48602 20 10 20C15.5136 20 20 15.5136 20 10C20 4.48602 15.5144 0 10 0ZM11.7695 6.69258H14.8063V7.59929H11.7695V6.69258ZM10.234 11.4473C10.234 13.6937 7.89535 13.6204 7.89535 13.6204H5.75324H5.6904H4.0655V6.25916H5.6904H5.75324H7.89535C9.05986 6.25916 9.97865 6.90244 9.97865 8.21961C9.97865 9.53637 8.85563 9.62016 8.85563 9.62016C10.3359 9.61975 10.234 11.4473 10.234 11.4473ZM15.9156 11.3264H12.1006C12.1006 12.6944 13.3964 12.6082 13.3964 12.6082C14.6193 12.6082 14.5767 11.8162 14.5767 11.8162H15.8733C15.8733 13.9181 13.3541 13.7735 13.3541 13.7735C10.3319 13.7735 10.5261 10.9599 10.5261 10.9599C10.5261 10.9599 10.5232 8.13139 13.3541 8.13139C16.3333 8.13139 15.9148 11.3264 15.9156 11.3264Z" fill="#1D63F8"/>
</svg>
