<svg width="35" height="35" viewBox="0 0 35 35" fill="none" xmlns="http://www.w3.org/2000/svg">
<path d="M14.5968 10.9484H15.8107C16.0934 10.9482 16.3645 10.8357 16.5644 10.6358C16.7644 10.436 16.8769 10.1649 16.8772 9.88219V7.86614C16.8769 7.58339 16.7644 7.31231 16.5645 7.11238C16.3645 6.91244 16.0934 6.79997 15.8107 6.79962H14.5968C14.314 6.79997 14.043 6.91244 13.843 7.11238C13.6431 7.31231 13.5306 7.58339 13.5303 7.86614V9.8822C13.5306 10.1649 13.6431 10.436 13.8431 10.6358C14.043 10.8357 14.3141 10.9482 14.5968 10.9484ZM15.7835 7.86613V9.85524L14.624 9.8822L14.5968 7.89337L15.7835 7.86613Z" fill="#5C8699"/>
<path d="M19.1896 10.9484H20.4035C20.6862 10.9482 20.9573 10.8357 21.1572 10.6358C21.3571 10.436 21.4696 10.1649 21.47 9.88219V7.86614C21.4696 7.58339 21.3572 7.31231 21.1572 7.11238C20.9573 6.91244 20.6862 6.79997 20.4035 6.79962H19.1896C18.9068 6.79997 18.6357 6.91244 18.4358 7.11238C18.2359 7.31231 18.1234 7.58339 18.123 7.86614V9.8822C18.1234 10.1649 18.2359 10.436 18.4358 10.6358C18.6358 10.8357 18.9068 10.9482 19.1896 10.9484ZM20.3762 7.86613V9.85524L19.2168 9.8822L19.1896 7.89337L20.3762 7.86613Z" fill="#5C8699"/>
<path d="M13.5303 15.2436C13.5306 15.5264 13.6431 15.7974 13.843 15.9974C14.043 16.1973 14.314 16.3098 14.5968 16.3101H15.8107C16.0934 16.3098 16.3645 16.1973 16.5645 15.9974C16.7644 15.7974 16.8769 15.5264 16.8772 15.2436V13.2276C16.8769 12.9448 16.7644 12.6738 16.5644 12.4739C16.3645 12.274 16.0934 12.1616 15.8107 12.1613H14.5968C14.3141 12.1616 14.043 12.274 13.8431 12.4739C13.6431 12.6738 13.5306 12.9448 13.5303 13.2276V15.2436ZM15.7835 13.2276V15.2169L14.624 15.2436L14.5968 13.2551L15.7835 13.2276Z" fill="#5C8699"/>
<path d="M18.123 15.2436C18.1234 15.5264 18.2359 15.7974 18.4358 15.9974C18.6357 16.1973 18.9068 16.3098 19.1896 16.3101H20.4035C20.6862 16.3098 20.9573 16.1973 21.1572 15.9974C21.3572 15.7974 21.4696 15.5264 21.47 15.2436V13.2276C21.4696 12.9448 21.3571 12.6738 21.1572 12.4739C20.9573 12.274 20.6862 12.1616 20.4035 12.1613H19.1896C18.9068 12.1616 18.6358 12.274 18.4358 12.4739C18.2359 12.6738 18.1234 12.9448 18.123 13.2276V15.2436ZM20.3762 13.2276V15.2169L19.2168 15.2436L19.1896 13.2551L20.3762 13.2276Z" fill="#5C8699"/>
<path d="M8.05719 18.5721H9.42547C9.70814 18.5718 9.97914 18.4594 10.179 18.2595C10.3788 18.0596 10.4912 17.7885 10.4915 17.5059V16.2826C10.4912 15.9999 10.3788 15.7289 10.179 15.529C9.97914 15.3291 9.70814 15.2167 9.42547 15.2164H8.05719C7.77452 15.2167 7.50352 15.3291 7.30367 15.529C7.10382 15.7289 6.99145 15.9999 6.99121 16.2826V17.5059C6.99145 17.7885 7.10382 18.0596 7.30367 18.2595C7.50352 18.4594 7.77452 18.5718 8.05719 18.5721ZM9.39767 16.2826V17.4789L8.08496 17.5059L8.05719 16.3101L9.39767 16.2826Z" fill="#5C8699"/>
<path d="M8.05719 23.4075H9.42547C9.70814 23.4072 9.97914 23.2947 10.179 23.0948C10.3788 22.8949 10.4912 22.6239 10.4915 22.3412V21.118C10.4912 20.8353 10.3789 20.5642 10.179 20.3643C9.97917 20.1643 9.70817 20.0518 9.42547 20.0515H8.05719C7.7745 20.0518 7.50349 20.1643 7.30365 20.3643C7.1038 20.5642 6.99144 20.8353 6.99121 21.118V22.3412C6.99145 22.6239 7.10382 22.8949 7.30367 23.0948C7.50352 23.2947 7.77452 23.4072 8.05719 23.4075ZM9.39767 21.118V22.3143L8.08496 22.3412L8.05719 21.1452L9.39767 21.118Z" fill="#5C8699"/>
<path d="M28.1702 12.3472C28.1699 12.0645 28.0576 11.7934 27.8577 11.5935C27.6579 11.3935 27.3869 11.281 27.1042 11.2806H25.7359C25.4532 11.281 25.1822 11.3935 24.9824 11.5935C24.7825 11.7934 24.6701 12.0645 24.6699 12.3472V13.5702C24.6701 13.8529 24.7825 14.1239 24.9824 14.3239C25.1822 14.5238 25.4532 14.6363 25.7359 14.6367H27.1042C27.3869 14.6363 27.6579 14.5238 27.8577 14.3239C28.0576 14.1239 28.1699 13.8529 28.1702 13.5702V12.3472ZM27.0764 13.5434L25.7637 13.5701L25.7359 12.3744L27.0764 12.3472V13.5434Z" fill="#5C8699"/>
<path d="M27.1042 16.116H25.7359C25.4532 16.1163 25.1822 16.2287 24.9824 16.4286C24.7825 16.6285 24.6702 16.8996 24.6699 17.1822V18.4055C24.6702 18.6882 24.7825 18.9592 24.9824 19.1591C25.1822 19.359 25.4532 19.4714 25.7359 19.4717H27.1042C27.3868 19.4714 27.6578 19.359 27.8577 19.1591C28.0576 18.9592 28.1699 18.6882 28.1702 18.4055V17.1822C28.1699 16.8996 28.0576 16.6285 27.8577 16.4286C27.6578 16.2287 27.3868 16.1163 27.1042 16.116ZM27.0764 18.3785L25.7637 18.4055L25.7359 17.2097L27.0764 17.1822V18.3785Z" fill="#5C8699"/>
<path d="M31.746 27.4804H29.9633V12.1132C29.9612 11.9695 29.9027 11.8324 29.8004 11.7315C29.698 11.6306 29.5601 11.574 29.4164 11.574C29.2727 11.574 29.1347 11.6306 29.0324 11.7315C28.9301 11.8324 28.8716 11.9695 28.8695 12.1132V27.4804H23.9695V8.76627H28.618C28.6847 8.76635 28.7487 8.79291 28.7958 8.84012C28.843 8.88733 28.8695 8.95133 28.8695 9.01807V9.9257C28.8717 10.0693 28.9302 10.2064 29.0325 10.3072C29.1349 10.408 29.2728 10.4645 29.4164 10.4645C29.5601 10.4645 29.6979 10.408 29.8003 10.3072C29.9026 10.2064 29.9612 10.0693 29.9633 9.9257V9.01807C29.9629 8.66135 29.8211 8.31934 29.5689 8.06709C29.3167 7.81483 28.9747 7.67292 28.618 7.67252H23.9695V5.51252C23.9691 5.09201 23.8018 4.68887 23.5044 4.39156C23.2071 4.09424 22.8039 3.92704 22.3834 3.92664H12.6166C12.1961 3.92704 11.7929 4.09424 11.4955 4.39156C11.1982 4.68887 11.0309 5.09201 11.0304 5.51252V6.25085C11.0324 6.39462 11.0908 6.53185 11.1932 6.63284C11.2955 6.73382 11.4335 6.79044 11.5773 6.79044C11.7211 6.79044 11.8591 6.73382 11.9614 6.63284C12.0638 6.53185 12.1222 6.39462 12.1242 6.25085V5.51252C12.1244 5.38202 12.1764 5.25694 12.2687 5.16469C12.361 5.07243 12.4861 5.02054 12.6166 5.02039H22.3834C22.5139 5.02054 22.639 5.07243 22.7313 5.16469C22.8236 5.25694 22.8756 5.38202 22.8758 5.51252V27.4804H20.9527V20.198H21.2133C21.357 20.196 21.4941 20.1375 21.595 20.0352C21.6959 19.9328 21.7525 19.7949 21.7525 19.6512C21.7525 19.5074 21.6959 19.3695 21.595 19.2672C21.4941 19.1648 21.357 19.1063 21.2133 19.1043C20.9758 19.1045 13.7867 19.1043 13.7867 19.1043C13.7149 19.1043 13.6438 19.1184 13.5774 19.1459C13.5111 19.1733 13.4508 19.2136 13.4 19.2644C13.3492 19.3152 13.3089 19.3755 13.2814 19.4419C13.254 19.5082 13.2398 19.5793 13.2398 19.6512C13.2584 20.1153 13.6458 20.2369 14.0473 20.198V27.4804H12.1242V8.43835C12.122 8.29478 12.0634 8.15784 11.9611 8.0571C11.8587 7.95635 11.7209 7.89989 11.5773 7.89989C11.4337 7.89989 11.2959 7.95635 11.1936 8.0571C11.0913 8.15784 11.0327 8.29478 11.0305 8.43835V12.1637H6.24901C5.92774 12.1641 5.61975 12.2918 5.39258 12.519C5.16541 12.7462 5.03762 13.0542 5.03723 13.3754V27.4804H3.25402C2.97126 27.4808 2.70019 27.5933 2.50026 27.7932C2.30032 27.9931 2.18785 28.2642 2.1875 28.547V30.0071C2.18786 30.2898 2.30035 30.5608 2.50029 30.7607C2.70023 30.9606 2.97129 31.073 3.25402 31.0733H5.58359C5.72699 31.0708 5.86368 31.0121 5.96421 30.9098C6.06475 30.8075 6.12108 30.6699 6.12108 30.5264C6.12108 30.383 6.06475 30.2453 5.96421 30.143C5.86368 30.0408 5.72699 29.982 5.58359 29.9796L3.28125 30.0071L3.25402 28.5742C8.70569 28.575 28.895 28.5934 31.7188 28.547L31.746 29.9796H7.77109C7.62758 29.9819 7.49073 30.0405 7.39006 30.1428C7.28939 30.2451 7.23298 30.3829 7.23298 30.5265C7.23299 30.67 7.28941 30.8078 7.39009 30.9101C7.49076 31.0124 7.62761 31.071 7.77113 31.0733H31.746C32.0287 31.073 32.2998 30.9606 32.4997 30.7607C32.6997 30.5608 32.8121 30.2898 32.8125 30.0071V28.547C32.8122 28.2642 32.6997 27.9931 32.4997 27.7932C32.2998 27.5933 32.0287 27.4808 31.746 27.4804ZM11.0304 27.4804H6.13097V13.3754C6.13062 13.3598 6.13343 13.3443 6.13923 13.3299C6.14504 13.3154 6.15372 13.3022 6.16475 13.2912C6.17578 13.2802 6.18893 13.2715 6.20341 13.2657C6.2179 13.2599 6.2334 13.2571 6.249 13.2574H11.0304L11.0304 27.4804ZM16.9531 27.4804H15.1411V20.198H16.9531V27.4804ZM19.8589 27.4804H18.0469V20.198H19.8589V27.4804Z" fill="#5C8699"/>
</svg>
