<svg width="35" height="35" viewBox="0 0 35 35" fill="none" xmlns="http://www.w3.org/2000/svg">
<path d="M29.8725 5.12377C23.0373 -1.70937 11.9569 -1.70773 5.12377 5.12753C-1.70937 11.9628 -1.70773 23.0431 5.12753 29.8763C11.9628 36.7094 23.0431 36.7078 29.8763 29.8725C33.1579 26.5898 35.001 22.1379 35 17.4963C34.9991 12.8553 33.1547 8.40488 29.8725 5.12377ZM26.5032 24.3773C26.5024 24.3781 26.5017 24.3789 26.5008 24.3796V24.3738L25.6141 25.2546C24.4674 26.4159 22.7973 26.8936 21.21 26.5146C19.6107 26.0866 18.0904 25.4052 16.7066 24.4963C15.4211 23.6747 14.2297 22.7143 13.1541 21.6321C12.1645 20.6498 11.2754 19.571 10.5 18.4121C9.65175 17.1651 8.9804 15.8067 8.50496 14.3755C7.95993 12.6941 8.41158 10.8491 9.67165 9.60964L10.71 8.57133C10.9986 8.28135 11.4677 8.28033 11.7576 8.56901C11.7584 8.56976 11.7592 8.57051 11.76 8.57133L15.0383 11.8496C15.3282 12.1383 15.3293 12.6074 15.0406 12.8973C15.0398 12.8981 15.0391 12.8988 15.0383 12.8996L13.1133 14.8246C12.5609 15.371 12.4915 16.2391 12.95 16.8663C13.6462 17.8219 14.4167 18.721 15.2541 19.5555C16.1879 20.4933 17.2029 21.3463 18.2875 22.1047C18.9141 22.5418 19.7637 22.4681 20.3058 21.9297L22.1666 20.0397C22.4553 19.7497 22.9243 19.7487 23.2143 20.0374C23.215 20.0381 23.2158 20.0389 23.2166 20.0397L26.5008 23.3297C26.7908 23.6183 26.7918 24.0873 26.5032 24.3773Z" fill="#4CA3AD"/>
</svg>
