<svg width="35" height="35" viewBox="0 0 35 35" fill="none" xmlns="http://www.w3.org/2000/svg">
<path fill-rule="evenodd" clip-rule="evenodd" d="M17.5 35C7.85046 35 0 27.1495 0 17.5C0 7.85046 7.85046 0 17.5 0C27.1495 0 35 7.85046 35 17.5C35 27.1495 27.1495 35 17.5 35ZM26.5753 23.6476C26.791 23.6476 26.9666 23.4721 26.9666 23.2563V12.2698L18.0628 19.3403C17.8981 19.4712 17.6989 19.5366 17.4999 19.5366C17.3009 19.5366 17.1019 19.4711 16.9371 19.3403L8.03332 12.2698V23.2563C8.03332 23.4721 8.20894 23.6476 8.42468 23.6476H26.5753ZM25.2108 11.3524L17.5 17.4757L9.78913 11.3524H25.2108ZM28.777 11.7437V23.2564C28.777 24.4704 27.7892 25.4581 26.5753 25.4581H8.42468C7.21062 25.4581 6.22303 24.4704 6.22303 23.2564V11.7437C6.22303 10.5297 7.21068 9.54208 8.42468 9.54208H26.5753C27.7892 9.54201 28.777 10.5297 28.777 11.7437Z" fill="#2196F3"/>
</svg>
