<svg width="35" height="35" viewBox="0 0 35 35" fill="none" xmlns="http://www.w3.org/2000/svg">
<g clip-path="url(#clip0_352_3406)">
<path d="M34.9966 17.6035C34.9966 7.99571 27.2079 0.207039 17.6001 0.207039C7.99228 0.207039 0.203613 7.99571 0.203613 17.6035C0.203613 27.2113 7.99228 35 17.6001 35C27.2079 35 34.9966 27.2113 34.9966 17.6035Z" fill="url(#paint0_linear_352_3406)"/>
<path opacity="0.1" d="M30.6933 6.15847C28.1571 10.8143 24.5702 15.6167 20.0883 20.0985C15.6064 24.5804 10.8041 28.1604 6.1551 30.6967C5.86363 30.4433 5.58056 30.1793 5.30587 29.9047C3.64556 28.2998 2.32137 26.3804 1.41052 24.2584C0.499672 22.1365 0.020396 19.8544 0.000636933 17.5453C-0.0191222 15.2362 0.421032 12.9463 1.29543 10.8091C2.16983 8.67185 3.46098 6.73009 5.09359 5.09703C6.7262 3.46396 8.6676 2.17227 10.8046 1.29727C12.9416 0.422274 15.2314 -0.0185184 17.5405 0.000596052C19.8496 0.0197105 22.1318 0.49835 24.254 1.4086C26.3762 2.31886 28.2959 3.64251 29.9013 5.30238C30.176 5.57706 30.44 5.86243 30.6933 6.15847Z" fill="white"/>
<path d="M21.7204 8.44748H13.4799C12.1443 8.44748 10.8634 8.97804 9.91905 9.92244C8.97465 10.8668 8.44409 12.1477 8.44409 13.4833V21.7237C8.44409 23.0593 8.97465 24.3402 9.91905 25.2846C10.8634 26.229 12.1443 26.7596 13.4799 26.7596H21.7204C23.0559 26.7596 24.3368 26.229 25.2812 25.2846C26.2256 24.3402 26.7562 23.0593 26.7562 21.7237V13.4833C26.7562 12.1477 26.2256 10.8668 25.2812 9.92244C24.3368 8.97804 23.0559 8.44748 21.7204 8.44748ZM25.1539 21.0004C25.1539 22.1029 24.7159 23.1602 23.9364 23.9397C23.1568 24.7193 22.0995 25.1573 20.997 25.1573H14.2032C13.1008 25.1573 12.0435 24.7193 11.2639 23.9397C10.4844 23.1602 10.0464 22.1029 10.0464 21.0004V14.2066C10.0464 13.1042 10.4844 12.0469 11.2639 11.2673C12.0435 10.4877 13.1008 10.0498 14.2032 10.0498H20.997C22.0995 10.0498 23.1568 10.4877 23.9364 11.2673C24.7159 12.0469 25.1539 13.1042 25.1539 14.2066V21.0004Z" fill="white"/>
<path d="M20.9399 14.2982L20.8964 14.2547L20.8597 14.218C19.9943 13.3556 18.822 12.8715 17.6002 12.8721C16.9832 12.8763 16.373 13.002 15.8046 13.2421C15.2362 13.4822 14.7206 13.8319 14.2874 14.2713C13.8542 14.7107 13.5118 15.2311 13.2798 15.8029C13.0478 16.3746 12.9307 16.9865 12.9352 17.6035C12.9343 18.8557 13.4279 20.0576 14.3086 20.9477C14.74 21.3844 15.2541 21.7307 15.8208 21.9665C16.3875 22.2023 16.9955 22.3229 17.6093 22.3211C18.5301 22.3018 19.4253 22.015 20.1858 21.4957C20.9463 20.9763 21.5393 20.2469 21.8924 19.3963C22.2454 18.5458 22.3434 17.6109 22.1743 16.7056C22.0051 15.8003 21.5762 14.9639 20.9399 14.2982ZM17.6002 20.7074C16.9845 20.716 16.3802 20.5413 15.8641 20.2056C15.3479 19.8698 14.9433 19.3881 14.7017 18.8217C14.4601 18.2554 14.3924 17.63 14.5072 17.0251C14.622 16.4201 14.9142 15.863 15.3465 15.4245C15.7788 14.9861 16.3317 14.6861 16.935 14.5628C17.5382 14.4395 18.1645 14.4983 18.7342 14.7319C19.3039 14.9655 19.7913 15.3633 20.1343 15.8746C20.4773 16.386 20.6605 16.9878 20.6606 17.6035C20.6636 18.0083 20.5868 18.4097 20.4346 18.7848C20.2824 19.1599 20.0578 19.5014 19.7736 19.7896C19.4894 20.0779 19.1511 20.3073 18.7782 20.4648C18.4053 20.6223 18.005 20.7047 17.6002 20.7074Z" fill="white"/>
<path d="M23.65 12.6546C23.6512 12.8015 23.6235 12.9472 23.5683 13.0833C23.5131 13.2195 23.4316 13.3434 23.3285 13.448C23.2254 13.5526 23.1027 13.6359 22.9673 13.693C22.832 13.7501 22.6867 13.7799 22.5399 13.7808C22.3942 13.7808 22.25 13.7518 22.1156 13.6956C21.9813 13.6394 21.8594 13.5571 21.757 13.4535C21.6019 13.2962 21.4965 13.0968 21.4536 12.8801C21.4108 12.6633 21.4326 12.4388 21.5162 12.2343C21.5998 12.0298 21.7415 11.8544 21.9239 11.7297C22.1063 11.6051 22.3213 11.5367 22.5421 11.533C22.8007 11.533 23.051 11.6237 23.2494 11.7894L23.2723 11.8123C23.3093 11.8423 23.343 11.8761 23.3731 11.913L23.3982 11.9405C23.5621 12.1423 23.651 12.3947 23.65 12.6546Z" fill="white"/>
</g>
<defs>
<linearGradient id="paint0_linear_352_3406" x1="5.29895" y1="5.30238" x2="29.9012" y2="29.9047" gradientUnits="userSpaceOnUse">
<stop stop-color="#FAE100"/>
<stop offset="0.15" stop-color="#FCB720"/>
<stop offset="0.3" stop-color="#FF7950"/>
<stop offset="0.5" stop-color="#FF1C74"/>
<stop offset="1" stop-color="#6C1CD1"/>
</linearGradient>
<clipPath id="clip0_352_3406">
<rect width="35" height="35" fill="white"/>
</clipPath>
</defs>
</svg>
