<svg width="35" height="35" viewBox="0 0 35 35" fill="none" xmlns="http://www.w3.org/2000/svg">
<g clip-path="url(#clip0_352_3402)">
<path d="M17.5 35C27.165 35 35 27.165 35 17.5C35 7.83504 27.165 0 17.5 0C7.83504 0 0 7.83504 0 17.5C0 27.165 7.83504 35 17.5 35ZM17.4969 7.32802C23.2667 7.32802 27.9748 10.9436 28.2356 15.4815C28.2534 15.7597 28.2569 16.0386 28.246 16.3171C28.2307 16.5354 28.2024 16.7526 28.1612 16.9675C28.0262 17.7947 27.748 18.5919 27.3391 19.3235C27.1467 19.6707 26.2038 20.9921 25.9147 21.3402C24.3255 23.2547 21.6638 25.4645 17.213 27.6123C17.1188 27.658 17.014 27.6777 16.9096 27.6692C16.8052 27.6607 16.705 27.6244 16.6195 27.564C16.5339 27.5036 16.466 27.4215 16.4229 27.326C16.3799 27.2305 16.3632 27.1252 16.3746 27.0211L16.5989 25.0025C16.6075 24.926 16.6009 24.8486 16.5794 24.7746C16.558 24.7007 16.5222 24.6317 16.474 24.5717C16.4258 24.5116 16.3662 24.4617 16.2987 24.4248C16.2311 24.3878 16.1569 24.3646 16.0804 24.3564C10.8122 23.805 6.74629 20.2199 6.74629 15.8791C6.74662 11.1564 11.5598 7.32802 17.4969 7.32802Z" fill="#39CD00"/>
<path d="M11.0556 18.6667H13.2779C13.4252 18.6667 13.5665 18.6078 13.6706 18.5031C13.7748 18.3984 13.8333 18.2564 13.8333 18.1083C13.8333 17.9602 13.7748 17.8181 13.6706 17.7134C13.5665 17.6087 13.4252 17.5499 13.2779 17.5499H11.6109V13.8917C11.6109 13.7436 11.5524 13.6016 11.4483 13.4969C11.3441 13.3922 11.2028 13.3333 11.0555 13.3333C10.9082 13.3333 10.7669 13.3922 10.6627 13.4969C10.5585 13.6016 10.5 13.7436 10.5 13.8917V18.1081C10.5 18.2562 10.5585 18.3983 10.6627 18.5031C10.7669 18.6078 10.9083 18.6667 11.0556 18.6667Z" fill="#39CD00"/>
<path d="M16.8674 18.6667C17.0091 18.6667 17.145 18.6078 17.2452 18.5031C17.3454 18.3983 17.4017 18.2562 17.4017 18.1081V15.5477C17.4017 15.5477 19.5673 18.4824 19.5996 18.5141C19.697 18.6112 19.8263 18.6657 19.9609 18.6666C20.1057 18.6627 20.2432 18.5996 20.344 18.4909C20.4448 18.3822 20.5008 18.2365 20.5 18.0851V13.8916C20.4983 13.7446 20.4413 13.6043 20.3413 13.501C20.2413 13.3977 20.1063 13.3397 19.9658 13.3397C19.8252 13.3397 19.6903 13.3977 19.5903 13.501C19.4903 13.6043 19.4332 13.7446 19.4315 13.8916V16.4675C19.4315 16.4675 17.2982 13.5583 17.2658 13.5201C17.2135 13.4586 17.1488 13.41 17.0763 13.3777C17.0039 13.3455 16.9255 13.3305 16.8468 13.3338C16.7063 13.3431 16.5746 13.4087 16.479 13.5168C16.3834 13.6249 16.3313 13.7674 16.3334 13.9146V18.1081C16.3334 18.2562 16.3897 18.3982 16.4898 18.503C16.5899 18.6077 16.7258 18.6666 16.8674 18.6667Z" fill="#39CD00"/>
<path d="M14.7241 18.6667H14.9427C14.9941 18.6666 15.0449 18.6553 15.0923 18.6334C15.1397 18.6114 15.1828 18.5792 15.219 18.5387C15.2553 18.4981 15.2841 18.45 15.3037 18.397C15.3233 18.3441 15.3334 18.2873 15.3334 18.23V13.7697C15.3334 13.654 15.2922 13.543 15.219 13.4612C15.1457 13.3793 15.0463 13.3334 14.9427 13.3333H14.7241C14.6205 13.3334 14.5211 13.3793 14.4478 13.4612C14.3746 13.543 14.3334 13.654 14.3334 13.7697V18.23C14.3334 18.2873 14.3434 18.3441 14.3631 18.397C14.3827 18.45 14.4115 18.4981 14.4478 18.5387C14.484 18.5792 14.5271 18.6114 14.5745 18.6334C14.6219 18.6553 14.6728 18.6666 14.7241 18.6667Z" fill="#39CD00"/>
<path d="M21.722 18.6667H23.9445C24.0918 18.6667 24.2331 18.6078 24.3373 18.5031C24.4414 18.3984 24.5 18.2564 24.5 18.1083C24.5 17.9602 24.4414 17.8181 24.3373 17.7134C24.2331 17.6087 24.0918 17.5498 23.9445 17.5498H22.2775V16.5584H23.9443C24.0905 16.5566 24.2301 16.497 24.3329 16.3924C24.4357 16.2878 24.4933 16.1468 24.4933 15.9998C24.4933 15.8528 24.4357 15.7117 24.3329 15.6072C24.2301 15.5026 24.0905 15.443 23.9443 15.4412H22.2775V14.4498H23.9443C24.0916 14.4498 24.2328 14.391 24.337 14.2863C24.4411 14.1816 24.4996 14.0396 24.4996 13.8916C24.4996 13.7435 24.4411 13.6015 24.337 13.4968C24.2328 13.3921 24.0916 13.3333 23.9443 13.3333H21.722C21.5747 13.3334 21.4334 13.3922 21.3293 13.4969C21.2252 13.6016 21.1666 13.7435 21.1666 13.8916V18.1081C21.1666 18.1814 21.181 18.254 21.2088 18.3218C21.2367 18.3896 21.2776 18.4511 21.3292 18.503C21.3808 18.5549 21.442 18.596 21.5094 18.6241C21.5768 18.6522 21.649 18.6666 21.722 18.6667Z" fill="#39CD00"/>
</g>
<defs>
<clipPath id="clip0_352_3402">
<rect width="35" height="35" fill="white"/>
</clipPath>
</defs>
</svg>
