<svg width="35" height="35" viewBox="0 0 35 35" fill="none" xmlns="http://www.w3.org/2000/svg">
<g clip-path="url(#clip0_196_3017)">
<path d="M17.5 35C27.165 35 35 27.165 35 17.5C35 7.83504 27.165 0 17.5 0C7.83504 0 0 7.83504 0 17.5C0 27.165 7.83504 35 17.5 35ZM17.4969 7.32802C23.2667 7.32802 27.9748 10.9436 28.2356 15.4815C28.2534 15.7597 28.2569 16.0386 28.246 16.3171C28.2307 16.5354 28.2024 16.7526 28.1612 16.9675C28.0262 17.7947 27.748 18.5919 27.3391 19.3235C27.1467 19.6707 26.2038 20.9921 25.9147 21.3402C24.3255 23.2547 21.6638 25.4645 17.213 27.6123C17.1188 27.658 17.014 27.6777 16.9096 27.6692C16.8052 27.6607 16.705 27.6244 16.6195 27.564C16.5339 27.5036 16.466 27.4215 16.4229 27.326C16.3799 27.2305 16.3632 27.1252 16.3746 27.0211L16.5989 25.0025C16.6075 24.926 16.6009 24.8486 16.5794 24.7746C16.558 24.7007 16.5222 24.6317 16.474 24.5717C16.4258 24.5116 16.3662 24.4617 16.2987 24.4248C16.2311 24.3878 16.1569 24.3646 16.0804 24.3564C10.8122 23.805 6.74629 20.2199 6.74629 15.8791C6.74662 11.1564 11.5598 7.32802 17.4969 7.32802Z" fill="#4CA3AD"/>
<path d="M11.0556 18.6668H13.2779C13.4252 18.6668 13.5665 18.608 13.6706 18.5033C13.7748 18.3986 13.8333 18.2565 13.8333 18.1084C13.8333 17.9603 13.7748 17.8183 13.6706 17.7136C13.5665 17.6089 13.4252 17.55 13.2779 17.55H11.6109V13.8919C11.6109 13.7438 11.5524 13.6018 11.4483 13.497C11.3441 13.3923 11.2028 13.3335 11.0555 13.3335C10.9082 13.3335 10.7669 13.3923 10.6627 13.497C10.5585 13.6018 10.5 13.7438 10.5 13.8919V18.1083C10.5 18.2564 10.5585 18.3985 10.6627 18.5032C10.7669 18.608 10.9083 18.6668 11.0556 18.6668Z" fill="#4CA3AD"/>
<path d="M16.8671 18.6668C17.0087 18.6668 17.1446 18.608 17.2448 18.5032C17.345 18.3985 17.4013 18.2564 17.4013 18.1083V15.5479C17.4013 15.5479 19.5669 18.4826 19.5992 18.5142C19.6967 18.6113 19.8259 18.6659 19.9605 18.6667C20.1053 18.6628 20.2428 18.5998 20.3436 18.4911C20.4444 18.3823 20.5004 18.2367 20.4997 18.0853V13.8918C20.498 13.7448 20.4409 13.6044 20.3409 13.5011C20.2409 13.3978 20.106 13.3399 19.9654 13.3399C19.8248 13.3399 19.6899 13.3978 19.5899 13.5011C19.4899 13.6044 19.4328 13.7448 19.4311 13.8918V16.4677C19.4311 16.4677 17.2979 13.5585 17.2655 13.5203C17.2131 13.4587 17.1484 13.4101 17.0759 13.3779C17.0035 13.3457 16.9251 13.3307 16.8464 13.3339C16.7059 13.3433 16.5742 13.4088 16.4786 13.517C16.3831 13.6251 16.3309 13.7675 16.3331 13.9147V18.1083C16.333 18.2564 16.3893 18.3984 16.4894 18.5032C16.5896 18.6079 16.7254 18.6668 16.8671 18.6668Z" fill="#4CA3AD"/>
<path d="M14.7237 18.6668H14.9424C14.9937 18.6668 15.0445 18.6555 15.0919 18.6335C15.1393 18.6116 15.1824 18.5794 15.2187 18.5388C15.255 18.4983 15.2837 18.4502 15.3033 18.3972C15.323 18.3442 15.333 18.2875 15.333 18.2301V13.7699C15.333 13.6541 15.2919 13.5432 15.2186 13.4613C15.1453 13.3795 15.046 13.3335 14.9424 13.3335H14.7237C14.6201 13.3335 14.5207 13.3795 14.4475 13.4613C14.3742 13.5432 14.333 13.6541 14.333 13.7699V18.2301C14.333 18.2875 14.3431 18.3442 14.3627 18.3972C14.3823 18.4502 14.4111 18.4983 14.4474 18.5389C14.4837 18.5794 14.5267 18.6116 14.5742 18.6335C14.6216 18.6555 14.6724 18.6668 14.7237 18.6668Z" fill="#4CA3AD"/>
<path d="M21.7223 18.6668H23.9448C24.0922 18.6668 24.2334 18.608 24.3376 18.5033C24.4418 18.3986 24.5003 18.2565 24.5003 18.1084C24.5003 17.9603 24.4418 17.8183 24.3376 17.7136C24.2334 17.6088 24.0922 17.55 23.9448 17.55H22.2779V16.5586H23.9447C24.0909 16.5568 24.2305 16.4971 24.3333 16.3926C24.436 16.288 24.4936 16.1469 24.4936 16C24.4936 15.853 24.436 15.7119 24.3333 15.6073C24.2305 15.5028 24.0909 15.4431 23.9447 15.4413H22.2779V14.45H23.9447C24.0919 14.45 24.2332 14.3912 24.3373 14.2865C24.4415 14.1818 24.5 14.0398 24.5 13.8917C24.5 13.7437 24.4415 13.6017 24.3373 13.497C24.2332 13.3923 24.0919 13.3335 23.9447 13.3335H21.7223C21.5751 13.3335 21.4338 13.3923 21.3297 13.497C21.2255 13.6017 21.167 13.7437 21.167 13.8917V18.1082C21.167 18.1816 21.1813 18.2542 21.2092 18.322C21.2371 18.3897 21.278 18.4513 21.3296 18.5032C21.3811 18.555 21.4424 18.5962 21.5098 18.6243C21.5771 18.6523 21.6494 18.6668 21.7223 18.6668Z" fill="#4CA3AD"/>
</g>
<defs>
<clipPath id="clip0_196_3017">
<rect width="35" height="35" fill="white"/>
</clipPath>
</defs>
</svg>
