<svg width="41" height="39" viewBox="0 0 41 39" fill="none" xmlns="http://www.w3.org/2000/svg">
<path d="M40.1963 8.07119C40.1963 3.61324 36.5831 0 32.1251 0H17.1124C16.8699 0 16.6739 0.196021 16.6739 0.43852V22.8576H8.07119C3.61324 22.8576 0 26.4709 0 30.9288C0 35.3868 3.61324 39 8.07119 39H12.5352C18.5371 39 23.4234 34.2389 23.6336 28.2896H32.0928C36.5508 28.2896 40.164 24.6764 40.164 20.2184C40.164 17.8035 39.1031 15.6392 37.4217 14.16C39.1212 12.6807 40.1983 10.5023 40.1983 8.07119H40.1963ZM12.325 33.1416H8.14394C7.04461 33.1416 6.06047 32.3697 5.88668 31.2824C5.66641 29.8941 6.7334 28.6958 8.0813 28.6958H16.3081C16.5728 28.6958 16.7729 28.9282 16.7446 29.1909C16.4981 31.4138 14.6146 33.1416 12.325 33.1416ZM30.4438 22.4312H24.0802C23.8377 22.4312 23.6417 22.2352 23.6417 21.9927V17.6176C23.6417 17.3751 23.8377 17.1791 24.0802 17.1791H30.5125C32.0625 17.1791 33.2972 18.5209 33.1234 20.1052C32.9759 21.445 31.7917 22.4332 30.4438 22.4332V22.4312ZM30.4438 11.3166H24.0802C23.8377 11.3166 23.6417 11.1206 23.6417 10.8781V6.50303C23.6417 6.26053 23.8377 6.06451 24.0802 6.06451H30.5125C32.0625 6.06451 33.2972 7.40634 33.1234 8.99067C32.9759 10.3305 31.7917 11.3187 30.4438 11.3187V11.3166Z" fill="#4CA3AD"/>
</svg>
